<?xml version="1.0" standalone="no"?>
<!DOCTYPE svg PUBLIC "-//W3C//DTD SVG 20010904//EN"
 "http://www.w3.org/TR/2001/REC-SVG-20010904/DTD/svg10.dtd">
<svg version="1.0" xmlns="http://www.w3.org/2000/svg"
 width="200.000000pt" height="200.000000pt" viewBox="0 0 200.000000 200.000000"
 preserveAspectRatio="xMidYMid meet">
<metadata>
Created by potrace 1.15, written by Peter Selinger 2001-2017
</metadata>
<g transform="translate(0.000000,200.000000) scale(0.100000,-0.100000)"
fill="#000000" stroke="none">
<path d="M1353 1291 c-70 -52 -177 -95 -298 -120 -112 -22 -277 -41 -366 -41
-56 0 -60 2 -103 44 -107 108 -288 81 -359 -54 -25 -48 -28 -63 -25 -125 3
-59 8 -77 35 -117 84 -120 266 -132 362 -23 l33 38 128 -6 c300 -16 483 -70
645 -191 7 -5 20 -6 29 -3 15 6 16 36 14 319 -3 304 -4 313 -23 316 -11 1 -43
-15 -72 -37z m37 -282 l0 -220 -52 30 c-118 66 -325 114 -558 127 l-125 7 0
57 0 57 145 11 c237 19 418 61 525 121 28 16 53 29 58 30 4 1 7 -98 7 -220z
m-896 157 c46 -19 94 -81 102 -132 8 -55 -21 -122 -70 -159 -108 -82 -266 -2
-266 135 0 120 123 202 234 156z"/>
<path d="M1695 1296 c-169 -31 -175 -33 -175 -56 0 -10 5 -22 11 -26 15 -9
287 38 308 53 12 9 13 16 5 29 -6 10 -15 19 -20 20 -5 1 -63 -8 -129 -20z"/>
<path d="M1556 1044 c-15 -39 9 -45 173 -42 l156 3 0 25 0 25 -161 3 c-143 2
-162 1 -168 -14z"/>
<path d="M1553 824 c-3 -8 -1 -20 5 -26 12 -12 247 -58 295 -58 25 0 28 3 25
27 -3 27 -6 28 -123 50 -148 27 -194 28 -202 7z"/>
</g>
</svg>
